<?xml version="1.0" encoding="utf-8"?>
<!-- Generator: Adobe Illustrator 27.4.1, SVG Export Plug-In . SVG Version: 6.00 Build 0)  -->
<svg version="1.1" id="Layer_1" xmlns="http://www.w3.org/2000/svg" xmlns:xlink="http://www.w3.org/1999/xlink" x="0px" y="0px"
	 viewBox="0 0 1080 1080" style="enable-background:new 0 0 1080 1080;" xml:space="preserve">
<style type="text/css">
	.st0{fill:#4D7C40;}
	.st1{fill:#F2CF3B;}
	.st2{fill:#593320;}
	.st3{fill:#325925;}
	.st4{fill:#E2BD1E;stroke:#E2BD1E;stroke-miterlimit:10;}
</style>
<g>
	<path class="st0" d="M539.8,102.8c-9.8,26.5-19.5,53-29.3,79.5c-1.5-1.8-27.1-33-64.6-27.9c-20.9,2.8-34.3,15.4-39.1,20.3
		c31.2,20.5,62.4,41.1,93.6,61.6c-17.7-4.9-33.3-6.3-45.5-6.4c-22.9-0.2-43.6-0.4-59.9,13.6c-12.1,10.5-16.6,24.4-18.4,32.3
		c14.3-0.2,43.4,1.4,73.9,18.5c18.7,10.5,31.5,23.3,39.4,32.7c-24.5-11.7-51.1-9.8-67.6,4.9c-8.8,7.9-12.7,17.7-14.6,24.4
		c10.7,3.2,24,8.4,38,17c25.7,15.9,41.2,35.8,49.6,48.6c32.7,0,65.3,0,98,0c1.9-8.5,6-21.4,15.9-33.8c23.3-29.2,59.2-31.6,65.9-31.9
		c-1.8-5.6-4.8-11.9-9.6-18.1c-18.3-23.6-48.6-25.4-55-25.6c7.2-6.3,16.6-13.2,28.4-18.9c34.7-16.9,68.1-13.6,83.4-11
		c-6.5-10.1-21-29.4-46.7-42.2c-44.4-22.1-87.5-7.6-96.2-4.5c11.1-11.1,26.8-24.6,47.7-37c20-11.8,38.6-19,53.2-23.5
		c-7.2-5.8-22.5-16.5-44.6-19.6c-37.1-5.2-64.5,15.1-70.2,19.4C557.2,151.2,548.5,127,539.8,102.8z"/>
	<path class="st1" d="M619.1,439.5c-96.7-31.7-155.1-5.4-172.4,3.6c-125.8,65.4-124.8,277.6-75.3,396c17.1,41,36.3,61.6,52.2,74.4
		c58.1,46.7,144,45.8,200.9,19.3c88.3-41.1,139.4-159,110.1-284c-4.1,2.7-22.9,14.4-47.1,9.6c-33.9-6.9-46.5-40.2-47.2-42.1
		c-4.7-0.7-24.7-4-37.7-21.6c-13.5-18.3-13.9-44.6-0.7-66.3c-2.6-3.1-16.2-19.6-13.9-43.1C590.8,455.1,617,440.6,619.1,439.5z"/>
	<g>
		<path class="st2" d="M478,418.2c-9.2-27.2-28.6-42.1-56.1-47.3c-6.1-1.1-12.3-1.4-18.5-1.9c-7.8-0.6-11.5-4.7-10.6-12.5
			c2.3-20.5,14.7-33.1,33.1-39.8c8.5-3.1,17.9-3.9,26.9-5.7c1-0.2,2.1-0.3,4.4-0.6c-7.8-5.8-15.3-9.5-23.5-12
			c-21.3-6.4-42.4-4.3-63.5,1.3c-2.6,0.7-5.2,1.5-7.8,2.1c-9.2,2-15.8-4.7-13.5-13.8c8.4-33.3,30.1-52.8,63.2-60.1
			c17.6-3.8,35.4-3.4,53.2-1.6c0.8,0.1,1.6,0.2,2.4,0.3c0.2,0,0.5-0.2,1.5-0.8c-4.5-3.9-8.6-7.8-13.1-11.1
			c-17.8-12.9-38-20.3-59.3-25c-1.6-0.3-3.1-0.7-4.6-1c-4.3-1-7.7-3.3-8.7-7.8c-1-4.9-0.5-9.5,3.7-13c13.7-11.7,29.3-19,47.2-21
			c23.2-2.6,45.2,2.1,66.1,12.3c1.5,0.8,3.2,1.4,5.3,2.3c0.7-1.8,1.3-3.3,1.8-4.9c7.2-21.5,14.4-43,21.7-64.5c2.3-6.7,5.2-9,10.6-9
			c5.6,0,8.6,2.3,10.8,8.8c7.3,21.5,14.5,43,21.7,64.5c0.5,1.6,1.1,3.2,1.8,5.2c3.7-1.7,7-3.2,10.3-4.6
			c26.3-11.4,53.3-15.3,80.6-5.1c9.6,3.6,18.2,10.1,27,15.7c5,3.1,5.4,8.4,4.2,13.7c-1.1,4.7-4.8,6.8-9.3,7.7
			c-17.6,3.7-34.7,9.1-50.6,17.8c-9.4,5.2-17.9,11.3-26,20.1c5.2-0.4,9.4-0.9,13.5-1.1c19.3-1.1,38.5-0.7,56.9,6.1
			c26.5,9.7,43,28.5,50,55.7c2.6,10.1-4,16.9-14,14.2c-15.6-4.1-31.2-7.7-47.4-7c-15.2,0.6-29.4,4.6-42.4,12.8
			c-1.2,0.7-2.2,1.7-3.8,2.9c7.7,1.2,14.7,2.1,21.6,3.6c12.9,2.8,24.2,8.7,32.8,19.1c6,7.2,9.1,15.6,9.8,24.9
			c0.5,6.6-3.4,11-10.1,11.2c-13.9,0.6-27.5,2.5-40.2,8.6c-16.9,8.1-30.5,23.8-34.8,40.8c8.4,3.3,16.8,6.6,25.1,9.9
			c2.8,1.1,5.6,2.4,8.1,4c4,2.6,6.2,6.4,5.2,11.4c-1,4.9-4.1,7.7-9.1,8.5c-2.8,0.4-5.7,0.9-8.4,1.7c-16.5,4.7-28,17.5-29.2,34.4
			c-0.9,11.6,4.7,21.5,13,29.6c0.4,0.4,1,0.8,1.5,1.2c9.9,7.7,10.2,10.8,3.1,21.3c-2.5,3.7-4.8,7.6-6.4,11.6
			c-5.6,13.9,0.1,32.5,12.5,41.1c7.6,5.3,15.9,8.4,25.4,8.5c8.7,0.1,11.4,2.8,12.6,11.5c2.2,15.8,9.1,28.2,24.7,34.6
			c14.2,5.7,31.7,1.4,41.3-10.6c0.8-1,1.6-2,2.3-3c2.9-3.8,6.8-5.2,11.4-4.1c4.9,1.2,7.4,4.8,8,9.6c0.8,6.6,1.5,13.3,1.9,19.9
			c1.7,29.1,2.1,58.2-1.8,87.1c-6.7,49.4-21.5,96-49,138c-24.4,37.1-57.8,59.6-102.9,64.6c-26.2,2.9-52.2,5.2-78.5,2.6
			c-15.6-1.6-31.3-3.8-46.6-7.1c-30.9-6.6-54-25.3-72.9-49.8c-22.4-29-35.9-62.3-46.1-97.1c-12.1-41.6-14.8-84-12.8-127
			c1.8-39.9,7.7-79,19.5-117.2c6.9-22.2,14.8-44,27.4-63.7c21.9-34.2,52.7-56.7,91-69.3c1.5-0.5,3-1,4.5-1.6
			C477.2,418.9,477.4,418.6,478,418.2z M540.6,128.9c-0.4,0-0.8,0-1.1,0c-0.5,1.5-1.1,2.9-1.6,4.4c-5,14.9-10,29.8-15,44.7
			c-3.8,11.3-9.7,13.5-19.8,7.2c-12-7.4-24.6-13.1-38.4-16.3c-15.5-3.6-30.5-2.9-45.8,4.1c2.5,0.9,4.4,1.7,6.4,2.3
			c13.8,4.5,27,10.4,39,18.5c15.9,10.8,29,24.3,36.2,42.5c1.8,4.5,2.1,9-1.4,13c-3.4,3.8-7.7,3.6-12.3,2.7
			c-11.1-2.1-22.1-4.6-33.3-5.7c-16.8-1.7-33.4-0.3-49.2,6.2c-11.4,4.7-20.8,11.9-27.5,23.3c2.6-0.2,4.4-0.3,6.3-0.6
			c15.5-2.1,31-2.6,46.5,0.2c24.6,4.4,44.4,16.6,59.1,36.8c3.4,4.7,4.2,9.8,1.4,14.8c-2.8,4.9-7.6,5.4-12.9,5
			c-7.3-0.4-14.6-0.7-21.9-0.2c-10.7,0.7-21.2,2.9-30.1,9.3c-2.7,1.9-5,4.5-8.1,7.3c2.2,1.7,5.6,4.2,9.9,6.9
			c23.5,15.2,31.7,12.1,44.8,23.3c5.7,4.8,16.1,13.7,20,28c2,7.1,2.5,16,6.6,16.8c2,0.4,4.5-1.1,5.7-3c2.1-3.3-0.6-6.4,0.6-7.9
			c3.5-4.5,29.9,16.4,41.6,9.7c5.6-3.2,4.4-11.5,8.2-11.8c4.2-0.2,5,9.9,13.8,13.9c3.5,1.6,9.5,2.8,13.6,0.1
			c2.3-1.5,4.4-4.8,8.5-11.5c0-0.1,0.5-0.9,0.9-1.5c4.2-7,6.3-10.6,13.3-27.2c5.5-13.3,21.2-28.6,39.7-32.1
			c4.9-0.9,15.7-2.2,29.6,3.8c-16-25.1-28.2-29.9-36.6-29.5c-6.7,0.3-25.6,4.8-35.5,5.8c-1.5,0.1-5.9,0.5-9.2-1.9
			c-1-0.7-1.8-1.6-2.5-2.7c-2.8-4.4-2.4-9.1,0.1-13.6c1.2-2.1,2.7-3.9,4.2-5.8c18.6-23.1,43.5-33.5,72.5-34.4
			c11.8-0.4,23.7,0.9,35.9,1.4c-1.1-1.7-2.2-3.4-3.4-5c-10.3-13.1-24.4-19.5-40.2-22.5c-22.2-4.2-44-1.2-65.6,4.1
			c-4.7,1.2-9.2,1.4-12.8-2.5c-3.7-4.1-3.6-9-1.1-13.3c4.7-8.2,9.2-16.8,15.2-24c14.3-16.9,33.3-27.2,53.9-34.7
			c3.9-1.4,7.7-2.7,12.4-4.4c-13.8-6-27.2-7.6-41.3-5c-16,3-30.6,9.4-44.3,17.9c-8.4,5.3-14.9,2.8-18.1-6.6
			c-1.1-3.3-2.2-6.6-3.3-9.9C549.7,155.9,545.1,142.4,540.6,128.9z M603.9,784.7c-11.5-25.4-40.6-63.6-61-80.4c-3-2.5-4.5-0.7-6.4,1
			c-24,21.8-43.1,47.4-58.5,75.9c-1.3,2.4-1.4,4.1,0.9,6.1c23.5,20.7,42.7,44.8,58.6,71.6c0.7,1.1,1.5,2.1,2.7,3.6
			C557.6,832.8,578,806.6,603.9,784.7z M463.4,762.6c1-1.6,1.9-3,2.8-4.5c15.5-26,34.1-49.4,56.7-69.6c3-2.7,3.2-4.6,1.4-8
			c-10.7-19.3-22.8-37.5-37.5-53.9c-7.3-8.1-15-15.9-22.5-23.9c-2.3,1.8-3.5,2.5-4.5,3.5c-24,21.6-43,47.1-58.4,75.4
			c-1.6,2.9-0.7,4.2,1.3,6.4c12.5,13.3,25.4,26.3,37,40.4C448.4,739,455.4,751,463.4,762.6z M591.9,596.9c-7.4-10.5-9.7-21.8-9-33.9
			c0.2-2.7,0.3-5.4,0-8.1c-0.3-2.2-0.9-4.7-2.1-6.5c-10.7-14.9-22.8-28.5-36.3-41c-3.3-3.1-5.3-3.1-8.6,0
			c-16.9,15.7-31.7,33-44.1,52.4c-5.4,8.5-10.5,17.3-15.8,26.2c26.1,22.3,46.5,48.5,63.9,78.2C554.8,639.2,571.2,616.7,591.9,596.9z
			 M617.1,761.8c0,0,0.4-0.1,0.6-0.3c0.9-1.3,1.8-2.6,2.6-4c14.5-24.1,31.7-46.1,52.3-65.3c7.9-7.4,8-7.5,2.3-17.1
			c-2-3.3-4-7.3-7.1-9.1c-16.1-9.7-28.1-22.1-31.4-41.5c-0.2-1.3-1.9-3.3-3-3.4c-9.5-0.8-18.3-3.8-26.2-8.8c-0.7,0.5-1.2,0.7-1.5,1
			c-20.5,20.3-37.2,43.4-50.9,68.7c-1.5,2.8-0.1,3.8,1.5,5.5c12.3,13.1,25.1,25.7,36.5,39.5C601.8,737.9,609.1,750.2,617.1,761.8z
			 M463.1,802c-2,1.7-3.8,3.1-5.4,4.6c-18,16.6-33.2,35.4-46.2,56.1c-7.2,11.6-7.3,11.6,1.4,22.3c17.8,22,39.9,36.9,68.4,41.4
			c3,0.5,4.8-0.1,7-2.4c11.7-12.8,23.4-25.4,35.4-37.9c2.3-2.3,2.4-3.9,0.8-6.4c-7.7-12-14.9-24.4-23.1-36.1
			C490.7,828.3,477.9,814.6,463.1,802z M617,802.1c-1.4,1-2.4,1.7-3.4,2.6c-24.1,21.7-43.3,47.3-58.7,75.8c-1.3,2.4-0.5,3.5,1.2,5.2
			c10.1,10.2,21.2,19.6,29.5,31c7.1,9.6,13.8,10.5,24.2,7.5c27.5-8,47.6-25.4,63.8-48.1c0.8-1.1,0.5-3.7-0.3-4.9
			c-6.7-10.4-13.3-20.9-20.7-30.9C642.5,826.3,630.6,813.7,617,802.1z M463.1,565.2c17.3-30.1,38.1-56.2,63.7-78.4
			c-8.9-17-19-32.8-30.6-47.6c-1.8-2.2-3.6-2.5-6.2-1.7c-21.3,6-41.1,15.1-58.6,28.8c-9.5,7.5-18.1,15.9-25.5,26.2
			C428.7,513.6,447.3,537.8,463.1,565.2z M694.8,701.7c-2.2,1.7-3.5,2.6-4.7,3.6c-24,21.8-43.1,47.4-58.4,75.9c-1.4,2.6-1,4.1,1.2,6
			c20.5,18.1,37.9,38.9,52.6,61.9c0.7,1,1.4,1.9,2.5,3.3c1-1.6,1.8-2.7,2.3-3.9c5.5-13,11.4-25.9,16.3-39.1
			c8.4-22.9,13.7-46.6,16.5-70.8c0.3-2.5,0.5-6.1-0.9-7.7C713.3,721,704,711.5,694.8,701.7z M391.3,853.2c1.4-1.5,1.8-1.8,2-2.2
			c15.2-23.9,33.1-45.5,54.3-64.2c2.1-1.8,1.7-3.3,0.6-5.3c-15.4-28.7-34.5-54.4-58.7-76.3c-2.6-2.4-4.5-2.8-7.1-0.1
			c-7.3,7.6-14.6,15.1-22.1,22.4c-3.4,3.3-4.2,7.1-3.6,11.6c3.3,27.2,9.8,53.7,19.7,79.3C380.9,829.8,386.1,841,391.3,853.2z
			 M394.5,510.5c-1.5,2.8-2.6,4.6-3.4,6.4c-15.6,32.8-24.8,67.5-30.7,103.2c-0.6,3.8,0.1,6.5,2.4,9.5c4.3,5.5,8.2,11.3,12.1,17.1
			c3.7,5.6,7.2,11.4,11,17.4c0.7-1,1.2-1.6,1.6-2.3c16.2-27.6,35.7-52.5,59.9-73.6c2.3-2,2-3.6,0.6-5.6
			c-10.4-15.7-20.4-31.8-31.4-47C410.3,526.9,402.3,519.3,394.5,510.5z M510.3,928.6c0.5,0.7,1,1.4,1.5,2.1c19,2.1,37.9,2,56.9,0
			c0.3-0.5,0.5-0.9,0.8-1.4c-9.5-9.7-19.1-19.5-28.5-29.1C530.2,910.2,520.2,919.4,510.3,928.6z M600.7,440.7
			c-4.9-1.4-8.2-2.7-11.6-3.2c-1.6-0.2-4.3,0.5-5.1,1.7c-9.9,14.7-19.5,29.6-29.1,44.5c-0.6,0.9-0.8,3.1-0.1,3.8
			c6.5,6.4,13.2,12.6,20.9,20C571.1,479.9,575.8,457,600.7,440.7z M518.2,431.7c7.6,11.5,14.5,22.2,21.7,33.2
			c7.2-11.1,14.2-21.7,21.7-33.2C546.9,431.7,533,431.7,518.2,431.7z M355.4,700.9c4.9-4.6,9.6-9.1,14.5-13.3
			c2.2-1.8,2.3-3.4,0.9-5.6c-4.2-7.1-8.4-14.2-12.6-21.3c-0.4-0.7-1.2-1.1-2.9-2.6C355.4,673,355.4,686.7,355.4,700.9z M724.5,662.3
			c-9.8,5.9-11.7,15.5-16.8,22.9c5.9,5.5,11.4,10.6,16.8,15.6C724.5,688.1,724.5,675.9,724.5,662.3z"/>
	</g>
	<g>
		<path class="st2" d="M715.4,943c-15.5,0-28.2-12.7-28.2-28.2c0-15.5,12.7-28.2,28.2-28.2c15.5,0,28.2,12.7,28.2,28.2
			C743.6,930.4,730.9,943,715.4,943z M715.4,937.4c12.4,0,22.5-10.1,22.6-22.5c0.1-12.4-10.2-22.6-22.6-22.6
			c-12.4,0-22.5,10.1-22.6,22.5C692.8,927.1,703,937.4,715.4,937.4z"/>
		<path class="st2" d="M720.8,917.1c0.5,0.7,1,1.4,1.6,2.1c1.2,1.5,2.3,3.1,3.5,4.6c0.6,0.7,0.8,1.7,0.7,2.6c-0.2,1-0.9,2-1.8,2.3
			c0,0-0.6,0.2-1.2,0.2c-2.4-0.2-9.5-10.6-10-11.2c-1.2,0-2.5,0-3.7,0c0,0.3,0,0.5,0,0.8c0,2.5,0,5.1,0,7.6c0,2.1-1.5,3.2-3.5,2.8
			c-1.1-0.2-2-1.1-2.1-2.3c0-0.3,0-0.5,0-0.8c0-7.3,0-14.6,0-21.9c0-0.8,0.1-1.5,0.6-2.2c0.5-0.6,1.2-0.9,2-0.9
			c4.2,0,8.4-0.1,12.6,0.1c3.6,0.1,7.2,3.9,7.3,7.7c0.2,4.1-1.8,7.1-5.6,8.5C721,917,720.9,917,720.8,917.1z M709.8,912
			c0.2,0,0.4,0,0.5,0c2.6,0,5.1,0,7.7,0c1.7,0,3-1.3,3-2.8c0-1.6-1.3-2.8-3-2.8c-2.5,0-5.1,0-7.6,0c-0.2,0-0.4,0-0.6,0
			C709.8,908.3,709.8,910.1,709.8,912z"/>
	</g>
	<g>
		<path class="st3" d="M730.8,287.3c-7-27.2-23.5-46-50-55.7c-18.5-6.7-37.6-7.1-56.9-6.1c-4.1,0.2-8.3,0.7-13.5,1.1
			c8.1-8.8,16.7-14.9,26-20.1c15.9-8.7,32.9-14.1,50.6-17.8c4.5-0.9,8.2-3,9.3-7.7c1.2-5.2,0.8-10.5-4.2-13.7
			c-8.8-5.6-17.4-12.1-27-15.7c-27.4-10.2-54.4-6.3-80.6,5.1c-3.3,1.4-6.6,3-10.3,4.6c-0.7-2-1.3-3.6-1.8-5.2
			c-7.2-21.5-14.4-43-21.7-64.5c-2.2-6.6-5.2-8.9-10.8-8.8c-5.5,0-8.4,2.4-10.6,9c-7.3,21.5-14.5,43-21.7,64.5
			c-0.5,1.6-1.2,3.1-1.8,4.9c-2.1-0.9-3.7-1.5-5.3-2.3c-20.9-10.3-42.8-15-66.1-12.3c-17.9,2-33.5,9.3-47.2,21
			c-4.2,3.6-4.7,8.1-3.7,13c0.9,4.6,4.3,6.8,8.7,7.8c1.5,0.4,3.1,0.7,4.6,1c21.3,4.7,41.5,12,59.3,25c4.5,3.3,8.6,7.3,13.1,11.1
			c-1.1,0.6-1.3,0.8-1.5,0.8c-0.8,0-1.6-0.2-2.4-0.3c-17.8-1.8-35.6-2.3-53.2,1.6c-33.1,7.2-54.8,26.8-63.2,60.1
			c-2.3,9.1,4.3,15.8,13.5,13.8c2.6-0.6,5.2-1.4,7.8-2.1c21.1-5.6,42.2-7.7,63.5-1.3c8.2,2.5,15.7,6.2,23.5,12
			c-2.3,0.3-3.4,0.4-4.4,0.6c-9,1.8-18.4,2.6-26.9,5.7c-18.4,6.7-30.9,19.2-33.1,39.8c-0.9,7.9,2.8,12,10.6,12.5
			c6.2,0.4,12.4,0.7,18.5,1.9c27.5,5.1,46.8,20.1,56.1,47.3c0,0,0,0,0,0c4.2,1,9.5,1.8,15.6,1.7c3.2,0,6.1-0.3,8.7-0.7
			c8.5-1,12.8-1.6,12.8-1.6c0,0-5.1,0.5-15.1,1.7c-0.5-2.7-1.4-6.4-2.8-10.6c-2.8-8.3-9.2-23.4-23.4-36.4
			c-12.7-11.6-28.9-18.9-48.3-22.3c-2.3-0.4-4.7-0.8-8.4-1.4c3.1-2.9,5.4-5.4,8.1-7.3c9-6.4,19.4-8.5,30.1-9.3
			c7.3-0.5,14.6-0.2,21.9,0.2c5.3,0.3,10.1-0.1,12.9-5c2.8-5,2-10.1-1.4-14.8c-14.7-20.3-34.5-32.4-59.1-36.8
			c-15.5-2.8-31-2.3-46.5-0.2c-1.8,0.2-3.7,0.3-6.3,0.6c6.7-11.5,16.1-18.6,27.5-23.3c15.8-6.5,32.4-7.9,49.2-6.2
			c11.2,1.1,22.2,3.7,33.3,5.7c4.6,0.9,8.9,1.1,12.3-2.7c3.6-4,3.2-8.5,1.4-13c-7.2-18.3-20.3-31.7-36.2-42.5
			c-12-8.2-25.2-14-39-18.5c-1.9-0.6-3.8-1.4-6.4-2.3c15.3-6.9,30.3-7.6,45.8-4.1c13.8,3.2,26.5,8.8,38.4,16.3
			c10.1,6.3,15.9,4.1,19.8-7.2c5-14.9,10-29.8,15-44.7c0.5-1.5,1.1-2.9,1.6-4.4c0.4,0,0.8,0,1.1,0c4.5,13.5,9.1,27,13.6,40.5
			c1.1,3.3,2.2,6.6,3.3,9.9c3.3,9.4,9.7,11.8,18.1,6.6c13.7-8.6,28.3-15,44.3-17.9c14-2.6,27.4-1,41.3,5c-4.6,1.6-8.5,3-12.4,4.4
			c-20.6,7.5-39.6,17.7-53.9,34.7c-6.1,7.2-10.5,15.7-15.2,24c-2.5,4.3-2.6,9.2,1.1,13.3c3.6,3.9,8.1,3.7,12.8,2.5
			c21.6-5.4,43.4-8.4,65.6-4.1c15.9,3,30,9.4,40.2,22.5c1.2,1.6,2.3,3.3,3.4,5c-12.3-0.5-24.1-1.8-35.9-1.4
			c-29,0.9-53.9,11.3-72.5,34.4c-1.5,1.9-3,3.7-4.2,5.8c-2.5,4.4-2.9,9.2-0.1,13.6c2.7,4.2,7,5.1,11.7,4.7
			c13.1-1.2,26.1-1.2,38.8,2.5c8.3,2.4,16,6,21.7,13.8c-6.4,1.3-12.3,2.1-18.1,3.7c-16,4.3-29.3,11.6-39.9,21.8
			c-14.1,13.6-19.6,28.8-21.5,34.2c-0.9,2.6-1.6,4.9-2,6.4c3.7,0.7,7.5,1.3,10.9,2.6c3.1,1.2,6.1,2.8,8.9,4.6c0.6-1,1.2-2.1,1.9-3.1
			c0,0,0.1-0.1,0.1-0.1c-0.2-0.1-0.4-0.1-0.6-0.2c4.4-17,17.9-32.7,34.8-40.8c12.7-6.1,26.3-8,40.2-8.6c6.7-0.3,10.6-4.7,10.1-11.2
			c-0.7-9.3-3.7-17.7-9.8-24.9c-8.6-10.3-19.9-16.2-32.8-19.1c-6.9-1.5-13.9-2.3-21.6-3.6c1.6-1.3,2.7-2.2,3.8-2.9
			c12.9-8.2,27.1-12.2,42.4-12.8c16.2-0.7,31.9,2.8,47.4,7C726.8,304.1,733.4,297.3,730.8,287.3z"/>
	</g>
	<g>
		<path class="st2" d="M744.9,659.6c0,0,0-4-1.9-19.9c-0.6-4.8-3.1-8.4-8-9.6c-4.6-1.1-8.5,0.3-11.4,4.1c-0.8,1-1.5,2-2.3,3
			c-9.6,12-27.1,16.3-41.3,10.6c-15.6-6.3-22.5-18.7-24.7-34.6c-1.2-8.7-3.9-11.4-12.6-11.5c-9.4-0.1-17.8-3.3-25.4-8.5
			c-12.4-8.6-18.1-27.2-12.5-41.1c1.6-4.1,3.9-8,6.4-11.6c7.1-10.5,6.8-13.7-3.1-21.3c-0.5-0.4-1.1-0.7-1.5-1.2
			c-8.3-8.1-13.8-18-13-29.6c1.2-16.9,12.8-29.7,29.2-34.4c2.7-0.8,5.6-1.3,8.4-1.7c5-0.8,8.1-3.5,9.1-8.5c1-5-1.2-8.7-5.2-11.4
			c-2.5-1.6-5.3-2.9-8.1-4c-8.3-3.4-16.8-6.6-25.1-9.9c-19.3-5.1-35.9-7-47.8-7.8c-16-1-43.6-2.5-76.4,7.6c-7,2.2-18.4,6.2-31.6,13
			c-7.4,3.9-21.4,11.3-36.4,24.8c-3.9,3.5-16.4,14.8-28.7,33.9c-12.6,19.7-20.5,41.5-27.4,63.7c-11.8,38.2-17.7,77.3-19.5,117.2
			c-2,43,0.7,85.4,12.8,127c10.2,34.9,23.7,68.1,46.1,97.1c18.8,24.4,42,43.1,72.9,49.8c15.3,3.3,31,5.5,46.6,7.1
			c26.2,2.6,52.3,0.3,78.4-2.6c19.5-2.2,36.8-7.6,52.2-16.1c10.1-5.6,29.1-17.6,50.7-48.5C747.9,807.7,737.1,729.6,744.9,659.6z
			 M605.7,613.4c0.3-0.3,0.8-0.5,1.5-1c7.9,5,16.7,8,26.2,8.8c1.1,0.1,2.8,2.1,3,3.4c3.2,19.3,15.2,31.8,31.4,41.5
			c3.1,1.9,5.1,5.8,7.1,9.1c5.7,9.6,5.6,9.7-2.3,17.1c-20.6,19.3-37.8,41.2-52.3,65.3c-0.8,1.4-1.7,2.7-2.6,4
			c-0.2,0.2-0.5,0.3-0.6,0.3c-8.1-11.7-15.3-23.9-24.3-34.7c-11.4-13.8-24.2-26.5-36.5-39.5c-1.6-1.7-3-2.7-1.5-5.5
			C568.5,656.8,585.2,633.7,605.7,613.4z M591.9,596.9c-20.7,19.8-37.1,42.3-52,67.3c-17.4-29.8-37.8-55.9-63.9-78.2
			c5.3-8.9,10.3-17.7,15.8-26.2c12.4-19.4,27.2-36.7,44.1-52.4c3.3-3,5.3-3,8.6,0c13.5,12.5,25.6,26.1,36.3,41
			c1.3,1.8,1.8,4.3,2.1,6.5c0.4,2.7,0.2,5.4,0,8.1C582.2,575.1,584.5,586.4,591.9,596.9z M486.7,626.7
			c14.7,16.4,26.9,34.6,37.5,53.9c1.9,3.4,1.6,5.3-1.4,8c-22.6,20.1-41.2,43.6-56.7,69.6c-0.9,1.5-1.8,3-2.8,4.5
			c-8-11.6-15-23.6-23.8-34.2c-11.6-14.1-24.5-27.1-37-40.4c-2-2.1-2.9-3.5-1.3-6.4c15.3-28.4,34.4-53.8,58.4-75.4
			c1-0.9,2.2-1.7,4.5-3.5C471.8,610.7,479.4,618.5,486.7,626.7z M478,781.1c15.3-28.5,34.4-54.1,58.5-75.9c1.9-1.7,3.4-3.4,6.4-1
			c20.4,16.9,49.6,55,61,80.4c-25.8,22-46.3,48.1-63.6,77.8c-1.1-1.5-2-2.5-2.7-3.6c-15.9-26.8-35.2-51-58.6-71.6
			C476.6,785.1,476.7,783.5,478,781.1z M584,439.2c0.8-1.2,3.5-1.9,5.1-1.7c3.4,0.5,6.7,1.8,11.6,3.2c-24.9,16.3-29.6,39.2-25,66.8
			c-7.7-7.3-14.4-13.5-20.9-20c-0.6-0.6-0.5-2.8,0.1-3.8C564.5,468.8,574.1,454,584,439.2z M561.7,431.7
			c-7.5,11.5-14.5,22.1-21.7,33.2c-7.2-11-14.2-21.6-21.7-33.2H561.7z M431.4,466.3c17.5-13.7,37.3-22.8,58.6-28.8
			c2.6-0.7,4.4-0.5,6.2,1.7c11.6,14.8,21.7,30.5,30.6,47.6c-25.6,22.2-46.4,48.3-63.7,78.4c-15.8-27.4-34.4-51.6-57.2-72.7
			C413.3,482.3,421.8,473.8,431.4,466.3z M360.4,620.1c5.9-35.7,15.1-70.4,30.7-103.2c0.9-1.8,1.9-3.6,3.4-6.4
			c7.8,8.8,15.8,16.3,22.2,25.1c11,15.3,21,31.3,31.4,47c1.4,2.1,1.7,3.6-0.6,5.6c-24.2,21.1-43.7,46-59.9,73.6
			c-0.4,0.7-0.9,1.3-1.6,2.3c-3.8-6-7.3-11.8-11-17.4c-3.9-5.8-7.8-11.6-12.1-17.1C360.5,626.7,359.8,623.9,360.4,620.1z M355.4,658
			c1.7,1.5,2.5,2,2.9,2.6c4.2,7.1,8.3,14.2,12.6,21.3c1.4,2.3,1.2,3.8-0.9,5.6c-4.9,4.2-9.6,8.7-14.5,13.3V658z M391.3,853.2
			c-5.2-12.2-10.3-23.4-14.8-34.8c-9.8-25.6-16.4-52-19.7-79.3c-0.6-4.6,0.2-8.3,3.6-11.6c7.5-7.3,14.8-14.8,22.1-22.4
			c2.6-2.7,4.5-2.3,7.1,0.1c24.2,21.9,43.3,47.7,58.7,76.3c1.1,2,1.4,3.5-0.6,5.3c-21.2,18.7-39.2,40.3-54.3,64.2
			C393.1,851.3,392.7,851.6,391.3,853.2z M481.3,926.4c-28.5-4.5-50.6-19.4-68.4-41.4c-8.7-10.7-8.6-10.7-1.4-22.3
			c12.9-20.7,28.2-39.5,46.2-56.1c1.6-1.5,3.4-2.9,5.4-4.6c14.8,12.6,27.5,26.3,38.4,41.6c8.2,11.7,15.4,24.1,23.1,36.1
			c1.6,2.5,1.4,4.1-0.8,6.4c-12,12.4-23.8,25.1-35.4,37.9C486.2,926.3,484.3,926.9,481.3,926.4z M568.6,930.7
			c-19,2.1-37.9,2.2-56.9,0c-0.5-0.7-1-1.4-1.5-2.1c9.9-9.2,19.9-18.4,30.7-28.4c9.4,9.7,19,19.4,28.5,29.1
			C569.2,929.8,568.9,930.3,568.6,930.7z M673.7,876.1c-16.2,22.7-36.2,40.1-63.8,48.1c-10.4,3-17.2,2.1-24.2-7.5
			c-8.4-11.4-19.5-20.9-29.5-31c-1.7-1.7-2.5-2.7-1.2-5.2c15.4-28.5,34.5-54.1,58.7-75.8c0.9-0.8,2-1.5,3.4-2.6
			c13.6,11.6,25.5,24.2,35.7,38.2c7.3,10,13.9,20.5,20.7,30.9C674.2,872.4,674.4,875,673.7,876.1z M723,738.7
			c-2.7,24.2-8.1,47.9-16.5,70.8c-4.9,13.2-10.8,26.1-16.3,39.1c-0.5,1.2-1.4,2.3-2.3,3.9c-1-1.4-1.8-2.3-2.5-3.3
			c-14.7-23-32.1-43.8-52.6-61.9c-2.2-1.9-2.6-3.4-1.2-6c15.3-28.5,34.4-54.1,58.4-75.9c1.2-1,2.5-1.9,4.7-3.6
			c9.2,9.8,18.5,19.4,27.3,29.4C723.5,732.6,723.3,736.2,723,738.7z M724.5,700.8c-5.4-5-10.9-10.1-16.8-15.6
			c5.1-7.3,7-17,16.8-22.9V700.8z"/>
	</g>
	<g>
		<path class="st4" d="M582.2,551.9c0,0-1.3,12.4,1.9,27.2c0.6,2.6,1.3,5.1,2.3,7.7c1.7,4.4,3.9,7.8,5.5,10.1
			c1.1,1.4,2.3,2.9,3.6,4.4c3.9,4.5,7.9,8.1,11.7,11.1c4.3,3.4,8.8,4.6,11.3,5.5c3,1.1,5.1,1.9,8.2,2.5c5,1,6.6,0.3,8.3,1.9
			c1.5,1.4,1.2,2.8,2.5,7.6c0,0,0.5,2,2.5,7.6c1.6,4.5,9.7,19.8,27.3,28.6c3.6,1.8,23.3,11.2,44.5,3.2c5.6-2.1,9.8-4.9,12.6-7
			c2.4-1.9,5.1-4.2,7.7-7c5.2-5.6,8.7-11.2,10.9-15.7c-0.1-1-0.4-4.4-3.2-7.1c-1.9-1.8-3.9-2.3-4.8-2.5c-4.6-1.1-8.5,0.3-11.4,4.1
			c-0.8,1-1.5,2-2.3,3c-9.6,12-27.1,16.3-41.3,10.6c-15.6-6.3-22.5-18.7-24.7-34.6c-1.2-8.7-3.9-11.4-12.6-11.5
			c-9.4-0.1-17.8-3.3-25.4-8.5c-12.4-8.6-18.1-27.2-12.5-41.1c1.6-4.1,3.9-8,6.4-11.6c7.1-10.5,6.8-13.7-3.1-21.3
			c-0.5-0.4-1.1-0.7-1.5-1.2c-8.3-8.1-13.8-18-13-29.6c1.2-16.9,12.8-29.7,29.2-34.4c2.7-0.8,5.6-1.3,8.4-1.7c2.6-0.4,4.8-1.4,6.3-3
			c2-2,2.6-4.5,2.8-5.5c0.2-1,0.7-3.6-0.5-6.4c0,0-1.3-2.9-4.7-4.9c-6.7-3.9-22.7,0.3-35.4,8.8c-12.5,8.3-18.1,18.2-19.3,20.5
			c-0.7,1.4-3.1,6-4.9,12.6c-0.8,3.1-5.7,23.1,3.4,43.1c3,6.5,4.9,7.4,5.9,12.9C586.7,537.9,583.5,539.7,582.2,551.9z"/>
	</g>
</g>
</svg>
